# xmcd
#
# Track frame offsets:
#	150
#	17270
#	30775
#	45618
#	57540
#	73791
#	87894
#	102762
#	118353
#	131210
#	147290
#
# Disc length: 2149 seconds
#
# Revision: 5
# Processed by: cddbd v1.5.2PL0 Copyright (c) Steve Scherf et al.
# Submitted via: EasyCDDAExtractor 15.3.0.1
#
DISCID=9408630b
DTITLE=Alejandro Fernandez - Dos Mundos - Evolucion and Tradicion - CD 2 - Tradi
DTITLE=cion
DYEAR=2009
DGENRE=Latin
TTITLE0=Pecadora
TTITLE1=Me Dueles
TTITLE2=Estuve
TTITLE3=Unas Nalgadas
TTITLE4=Bandida
TTITLE5=Nada De Ti
TTITLE6=La Seven (A Duo Con Joan Sebastian)
TTITLE7=La Historia Que No
TTITLE8=Ya Se Acabo
TTITLE9=Mi Rechazo
TTITLE10=Maldita Costumbre
EXTD=YEAR: 2009
EXTT0=
EXTT1=
EXTT2=
EXTT3=
EXTT4=
EXTT5=
EXTT6=
EXTT7=
EXTT8=
EXTT9=
EXTT10=
PLAYORDER=
